<svg xmlns="http://www.w3.org/2000/svg" xmlns:xlink="http://www.w3.org/1999/xlink" width="1920" height="444.23" viewBox="0 0 1920 444.23"><defs><clipPath id="a"><rect width="1920" height="444.23" fill="none"/></clipPath></defs><g clip-path="url(#a)"><path d="M1919.259,322.82c.037-1.082.164-2.129.249-3.182v-3.269a22.644,22.644,0,0,1,0-5.646V0H1.308V337.27h1917.97c-.232-4.788-.185-9.667-.019-14.45" fill="#93a2c3"/><path d="M796.66,130.811c82.4,0,149.193,62.97,149.193,140.647S879.057,412.1,796.66,412.1,647.467,349.135,647.467,271.458s66.8-140.647,149.193-140.647" fill="#ffe9a2"/><path d="M1919.761,421.822q-.177-6.927-.2-13.857c-.051-13.5.214-27,.253-40.5a3.129,3.129,0,0,1-.521-1.487c-.233-2.537.34-5,.282-7.535-.05-2.163-.383-4.3-.376-6.471.016-4.9.315-9.8.078-14.7-.232-4.79-.185-9.671-.019-14.456a48.1,48.1,0,0,0,.283-6.063,22.671,22.671,0,0,1,.046-6.469l-109.421-68.244L1704.475,130.578l-334,83.861-133.009-83.861L981.12,242.044,713.339,294.258,399.153,242.044,17.391,322.216,1.05,333.342a3.4,3.4,0,0,1-.116,2.035,3.05,3.05,0,0,1,.21,1.174c-.078,6.764-.054,13.527-.065,20.29C1.069,362.36,1.345,368,.7,373.508a15.518,15.518,0,0,1-.3,10.6q-.02,3.215-.037,6.428-.111,15.052-.351,30.1c-.131,7.907.538,15.736,1.164,23.593H1919.615q.239-3.939.382-7.88l0-.134a32.023,32.023,0,0,1-.239-14.394" fill="#fff"/><path d="M310.973,287.406l89.667-28.011,128.686,28.011L400.64,277.278Z" fill="#fffce0"/><path d="M923.972,271.457l67.415-14.181,244.1-107.734,59.358,33.262-59.358-17.5-235.113,98.926Z" fill="#fffce0"/><path d="M1503.325,196.709l196.2-49.394,30.109,31.394-30.109-14.862Z" fill="#fffce0"/><path d="M653.661,293.3l56.267,11.777,235.648-47.245L709.925,317.548Z" fill="#fffce0"/><path d="M647.467,313.876l-282.52,87.06,274.365-79.17Z" fill="#e1e8f7"/><path d="M1420.491,259.393l117.764,76.742,56.453-29.527,127.48,75.612-127.48-68.628-60.39,30.531Z" fill="#e1e8f7"/></g></svg>