<svg xmlns="http://www.w3.org/2000/svg" width="62.012" height="62.012" viewBox="0 0 62.012 62.012">
  <path id="arrow_circle_left_FILL0_wght400_GRAD0_opsz48" d="M33.456,44.773a2.029,2.029,0,0,0,1.589.581,2.288,2.288,0,0,0,1.589-.659,2.248,2.248,0,0,0,0-3.256l-4.108-4.108h11.86a2.107,2.107,0,0,0,1.589-.7,2.3,2.3,0,0,0,.659-1.628,2.254,2.254,0,0,0-2.325-2.325H32.525l4.186-4.186a2.029,2.029,0,0,0,.581-1.589,2.288,2.288,0,0,0-.659-1.589,2.248,2.248,0,0,0-3.256,0l-8.062,8.062a2.248,2.248,0,0,0,0,3.256Zm1.55,21.239a31.448,31.448,0,0,1-12.247-2.364A30.01,30.01,0,0,1,6.364,47.253,31.448,31.448,0,0,1,4,35.006a31.247,31.247,0,0,1,2.364-12.17,30.261,30.261,0,0,1,6.55-9.844A30.912,30.912,0,0,1,35.006,4,30.758,30.758,0,0,1,66.012,35.006,30.912,30.912,0,0,1,57.02,57.1a30.261,30.261,0,0,1-9.844,6.55A31.247,31.247,0,0,1,35.006,66.012Zm0-4.651A25.823,25.823,0,0,0,61.361,35.006,25.823,25.823,0,0,0,35.006,8.651,25.823,25.823,0,0,0,8.651,35.006,25.823,25.823,0,0,0,35.006,61.361ZM35.006,35.006Z" transform="translate(66.012 66.012) rotate(180)" fill="#4d4d4d"/>
</svg>
